# xmcd
#
# Track frame offsets: 
#        150
#        16218
#        36018
#        59432
#        81834
#
# Disc length: 1351 seconds
#
# Revision: 0
# Processed by: cddbd v1.5.2PL0 Copyright (c) Steve Scherf et al.
# Submitted via: ExactAudioCopyFreeDBPlugin 1.0
#
DISCID=34054505
DTITLE=おやすみホログラム - 15
DYEAR=1900
DGENRE=Punk
TTITLE0=それから
TTITLE1=ghosting
TTITLE2=真昼のダンス (15 version)
TTITLE3=note (15 verdion)
TTITLE4=ニューロマンサー (15 version)
EXTD=
EXTT0=
EXTT1=
EXTT2=
EXTT3=
EXTT4=
PLAYORDER=
